<?xml version="1.0" standalone="no"?>
<svg xmlns:xlink="http://www.w3.org/1999/xlink" id="wave" style="transform:rotate(0deg); transition: 0.3s" viewBox="0 0 1440 290" version="1.1" xmlns="http://www.w3.org/2000/svg"><defs><linearGradient id="sw-gradient-0" x1="0" x2="0" y1="1" y2="0"><stop stop-color="rgba(255, 255, 255, 1)" offset="0%"/><stop stop-color="rgba(254.549, 254.549, 254.549, 1)" offset="100%"/></linearGradient></defs><path style="transform:translate(0, 0px); opacity:1" fill="url(#sw-gradient-0)" d="M0,203L40,188.5C80,174,160,145,240,125.7C320,106,400,97,480,116C560,135,640,184,720,207.8C800,232,880,232,960,207.8C1040,184,1120,135,1200,120.8C1280,106,1360,126,1440,140.2C1520,155,1600,164,1680,178.8C1760,193,1840,213,1920,212.7C2000,213,2080,193,2160,198.2C2240,203,2320,232,2400,236.8C2480,242,2560,222,2640,212.7C2720,203,2800,203,2880,193.3C2960,184,3040,164,3120,174C3200,184,3280,222,3360,222.3C3440,222,3520,184,3600,164.3C3680,145,3760,145,3840,130.5C3920,116,4000,87,4080,72.5C4160,58,4240,58,4320,77.3C4400,97,4480,135,4560,130.5C4640,126,4720,77,4800,67.7C4880,58,4960,87,5040,87C5120,87,5200,58,5280,72.5C5360,87,5440,145,5520,164.3C5600,184,5680,164,5720,154.7L5760,145L5760,290L5720,290C5680,290,5600,290,5520,290C5440,290,5360,290,5280,290C5200,290,5120,290,5040,290C4960,290,4880,290,4800,290C4720,290,4640,290,4560,290C4480,290,4400,290,4320,290C4240,290,4160,290,4080,290C4000,290,3920,290,3840,290C3760,290,3680,290,3600,290C3520,290,3440,290,3360,290C3280,290,3200,290,3120,290C3040,290,2960,290,2880,290C2800,290,2720,290,2640,290C2560,290,2480,290,2400,290C2320,290,2240,290,2160,290C2080,290,2000,290,1920,290C1840,290,1760,290,1680,290C1600,290,1520,290,1440,290C1360,290,1280,290,1200,290C1120,290,1040,290,960,290C880,290,800,290,720,290C640,290,560,290,480,290C400,290,320,290,240,290C160,290,80,290,40,290L0,290Z"/><defs><linearGradient id="sw-gradient-1" x1="0" x2="0" y1="1" y2="0"><stop stop-color="rgba(255, 255, 255, 1)" offset="0%"/><stop stop-color="rgba(255, 255, 255, 1)" offset="100%"/></linearGradient></defs><path style="transform:translate(0, 50px); opacity:0.9" fill="url(#sw-gradient-1)" d="M0,87L40,106.3C80,126,160,164,240,169.2C320,174,400,145,480,130.5C560,116,640,116,720,135.3C800,155,880,193,960,203C1040,213,1120,193,1200,193.3C1280,193,1360,213,1440,207.8C1520,203,1600,174,1680,145C1760,116,1840,87,1920,67.7C2000,48,2080,39,2160,72.5C2240,106,2320,184,2400,188.5C2480,193,2560,126,2640,82.2C2720,39,2800,19,2880,53.2C2960,87,3040,174,3120,178.8C3200,184,3280,106,3360,77.3C3440,48,3520,68,3600,96.7C3680,126,3760,164,3840,164.3C3920,164,4000,126,4080,135.3C4160,145,4240,203,4320,207.8C4400,213,4480,164,4560,159.5C4640,155,4720,193,4800,183.7C4880,174,4960,116,5040,91.8C5120,68,5200,77,5280,82.2C5360,87,5440,87,5520,72.5C5600,58,5680,29,5720,14.5L5760,0L5760,290L5720,290C5680,290,5600,290,5520,290C5440,290,5360,290,5280,290C5200,290,5120,290,5040,290C4960,290,4880,290,4800,290C4720,290,4640,290,4560,290C4480,290,4400,290,4320,290C4240,290,4160,290,4080,290C4000,290,3920,290,3840,290C3760,290,3680,290,3600,290C3520,290,3440,290,3360,290C3280,290,3200,290,3120,290C3040,290,2960,290,2880,290C2800,290,2720,290,2640,290C2560,290,2480,290,2400,290C2320,290,2240,290,2160,290C2080,290,2000,290,1920,290C1840,290,1760,290,1680,290C1600,290,1520,290,1440,290C1360,290,1280,290,1200,290C1120,290,1040,290,960,290C880,290,800,290,720,290C640,290,560,290,480,290C400,290,320,290,240,290C160,290,80,290,40,290L0,290Z"/><defs><linearGradient id="sw-gradient-2" x1="0" x2="0" y1="1" y2="0"><stop stop-color="rgba(255, 248.041, 245.806, 1)" offset="0%"/><stop stop-color="rgba(255, 255, 255, 1)" offset="100%"/></linearGradient></defs><path style="transform:translate(0, 100px); opacity:0.8" fill="url(#sw-gradient-2)" d="M0,87L40,82.2C80,77,160,68,240,77.3C320,87,400,116,480,106.3C560,97,640,48,720,29C800,10,880,19,960,33.8C1040,48,1120,68,1200,91.8C1280,116,1360,145,1440,149.8C1520,155,1600,135,1680,125.7C1760,116,1840,116,1920,120.8C2000,126,2080,135,2160,116C2240,97,2320,48,2400,33.8C2480,19,2560,39,2640,48.3C2720,58,2800,58,2880,67.7C2960,77,3040,97,3120,91.8C3200,87,3280,58,3360,48.3C3440,39,3520,48,3600,58C3680,68,3760,77,3840,87C3920,97,4000,106,4080,106.3C4160,106,4240,97,4320,96.7C4400,97,4480,106,4560,111.2C4640,116,4720,116,4800,120.8C4880,126,4960,135,5040,154.7C5120,174,5200,203,5280,207.8C5360,213,5440,193,5520,193.3C5600,193,5680,213,5720,222.3L5760,232L5760,290L5720,290C5680,290,5600,290,5520,290C5440,290,5360,290,5280,290C5200,290,5120,290,5040,290C4960,290,4880,290,4800,290C4720,290,4640,290,4560,290C4480,290,4400,290,4320,290C4240,290,4160,290,4080,290C4000,290,3920,290,3840,290C3760,290,3680,290,3600,290C3520,290,3440,290,3360,290C3280,290,3200,290,3120,290C3040,290,2960,290,2880,290C2800,290,2720,290,2640,290C2560,290,2480,290,2400,290C2320,290,2240,290,2160,290C2080,290,2000,290,1920,290C1840,290,1760,290,1680,290C1600,290,1520,290,1440,290C1360,290,1280,290,1200,290C1120,290,1040,290,960,290C880,290,800,290,720,290C640,290,560,290,480,290C400,290,320,290,240,290C160,290,80,290,40,290L0,290Z"/><defs><linearGradient id="sw-gradient-3" x1="0" x2="0" y1="1" y2="0"><stop stop-color="rgba(255, 254.58, 254.445, 1)" offset="0%"/><stop stop-color="rgba(255, 255, 255, 1)" offset="100%"/></linearGradient></defs><path style="transform:translate(0, 150px); opacity:0.7" fill="url(#sw-gradient-3)" d="M0,232L40,236.8C80,242,160,251,240,227.2C320,203,400,145,480,106.3C560,68,640,48,720,77.3C800,106,880,184,960,193.3C1040,203,1120,145,1200,125.7C1280,106,1360,126,1440,145C1520,164,1600,184,1680,203C1760,222,1840,242,1920,217.5C2000,193,2080,126,2160,87C2240,48,2320,39,2400,58C2480,77,2560,126,2640,145C2720,164,2800,155,2880,154.7C2960,155,3040,164,3120,140.2C3200,116,3280,58,3360,72.5C3440,87,3520,174,3600,203C3680,232,3760,203,3840,164.3C3920,126,4000,77,4080,58C4160,39,4240,48,4320,82.2C4400,116,4480,174,4560,198.2C4640,222,4720,213,4800,178.8C4880,145,4960,87,5040,53.2C5120,19,5200,10,5280,9.7C5360,10,5440,19,5520,38.7C5600,58,5680,87,5720,101.5L5760,116L5760,290L5720,290C5680,290,5600,290,5520,290C5440,290,5360,290,5280,290C5200,290,5120,290,5040,290C4960,290,4880,290,4800,290C4720,290,4640,290,4560,290C4480,290,4400,290,4320,290C4240,290,4160,290,4080,290C4000,290,3920,290,3840,290C3760,290,3680,290,3600,290C3520,290,3440,290,3360,290C3280,290,3200,290,3120,290C3040,290,2960,290,2880,290C2800,290,2720,290,2640,290C2560,290,2480,290,2400,290C2320,290,2240,290,2160,290C2080,290,2000,290,1920,290C1840,290,1760,290,1680,290C1600,290,1520,290,1440,290C1360,290,1280,290,1200,290C1120,290,1040,290,960,290C880,290,800,290,720,290C640,290,560,290,480,290C400,290,320,290,240,290C160,290,80,290,40,290L0,290Z"/></svg>