<?xml version="1.0" standalone="no"?>
<svg xmlns:xlink="http://www.w3.org/1999/xlink" id="wave" style="transform:rotate(180deg); transition: 0.3s" viewBox="0 0 1440 490" version="1.1" xmlns="http://www.w3.org/2000/svg"><defs><linearGradient id="sw-gradient-0" x1="0" x2="0" y1="1" y2="0"><stop stop-color="rgba(243, 106, 62, 1)" offset="0%"/><stop stop-color="rgba(255, 179, 11, 1)" offset="100%"/></linearGradient></defs><path style="transform:translate(0, 0px); opacity:1" fill="url(#sw-gradient-0)" d="M0,294L120,245C240,196,480,98,720,73.5C960,49,1200,98,1440,114.3C1680,131,1920,114,2160,89.8C2400,65,2640,33,2880,89.8C3120,147,3360,294,3600,294C3840,294,4080,147,4320,73.5C4560,0,4800,0,5040,40.8C5280,82,5520,163,5760,236.8C6000,310,6240,376,6480,351.2C6720,327,6960,212,7200,138.8C7440,65,7680,33,7920,40.8C8160,49,8400,98,8640,114.3C8880,131,9120,114,9360,130.7C9600,147,9840,196,10080,245C10320,294,10560,343,10800,343C11040,343,11280,294,11520,277.7C11760,261,12000,278,12240,253.2C12480,229,12720,163,12960,147C13200,131,13440,163,13680,212.3C13920,261,14160,327,14400,310.3C14640,294,14880,196,15120,171.5C15360,147,15600,196,15840,245C16080,294,16320,343,16560,310.3C16800,278,17040,163,17160,106.2L17280,49L17280,490L17160,490C17040,490,16800,490,16560,490C16320,490,16080,490,15840,490C15600,490,15360,490,15120,490C14880,490,14640,490,14400,490C14160,490,13920,490,13680,490C13440,490,13200,490,12960,490C12720,490,12480,490,12240,490C12000,490,11760,490,11520,490C11280,490,11040,490,10800,490C10560,490,10320,490,10080,490C9840,490,9600,490,9360,490C9120,490,8880,490,8640,490C8400,490,8160,490,7920,490C7680,490,7440,490,7200,490C6960,490,6720,490,6480,490C6240,490,6000,490,5760,490C5520,490,5280,490,5040,490C4800,490,4560,490,4320,490C4080,490,3840,490,3600,490C3360,490,3120,490,2880,490C2640,490,2400,490,2160,490C1920,490,1680,490,1440,490C1200,490,960,490,720,490C480,490,240,490,120,490L0,490Z"/><defs><linearGradient id="sw-gradient-1" x1="0" x2="0" y1="1" y2="0"><stop stop-color="rgba(243, 106, 62, 1)" offset="0%"/><stop stop-color="rgba(255, 179, 11, 1)" offset="100%"/></linearGradient></defs><path style="transform:translate(0, 50px); opacity:0.9" fill="url(#sw-gradient-1)" d="M0,392L120,326.7C240,261,480,131,720,89.8C960,49,1200,98,1440,163.3C1680,229,1920,310,2160,285.8C2400,261,2640,131,2880,122.5C3120,114,3360,229,3600,228.7C3840,229,4080,114,4320,57.2C4560,0,4800,0,5040,24.5C5280,49,5520,98,5760,171.5C6000,245,6240,343,6480,375.7C6720,408,6960,376,7200,343C7440,310,7680,278,7920,277.7C8160,278,8400,310,8640,334.8C8880,359,9120,376,9360,318.5C9600,261,9840,131,10080,122.5C10320,114,10560,229,10800,228.7C11040,229,11280,114,11520,57.2C11760,0,12000,0,12240,57.2C12480,114,12720,229,12960,236.8C13200,245,13440,147,13680,130.7C13920,114,14160,180,14400,228.7C14640,278,14880,310,15120,310.3C15360,310,15600,278,15840,236.8C16080,196,16320,147,16560,163.3C16800,180,17040,261,17160,302.2L17280,343L17280,490L17160,490C17040,490,16800,490,16560,490C16320,490,16080,490,15840,490C15600,490,15360,490,15120,490C14880,490,14640,490,14400,490C14160,490,13920,490,13680,490C13440,490,13200,490,12960,490C12720,490,12480,490,12240,490C12000,490,11760,490,11520,490C11280,490,11040,490,10800,490C10560,490,10320,490,10080,490C9840,490,9600,490,9360,490C9120,490,8880,490,8640,490C8400,490,8160,490,7920,490C7680,490,7440,490,7200,490C6960,490,6720,490,6480,490C6240,490,6000,490,5760,490C5520,490,5280,490,5040,490C4800,490,4560,490,4320,490C4080,490,3840,490,3600,490C3360,490,3120,490,2880,490C2640,490,2400,490,2160,490C1920,490,1680,490,1440,490C1200,490,960,490,720,490C480,490,240,490,120,490L0,490Z"/><defs><linearGradient id="sw-gradient-2" x1="0" x2="0" y1="1" y2="0"><stop stop-color="rgba(243, 106, 62, 1)" offset="0%"/><stop stop-color="rgba(255, 179, 11, 1)" offset="100%"/></linearGradient></defs><path style="transform:translate(0, 100px); opacity:0.8" fill="url(#sw-gradient-2)" d="M0,245L120,228.7C240,212,480,180,720,138.8C960,98,1200,49,1440,81.7C1680,114,1920,229,2160,236.8C2400,245,2640,147,2880,89.8C3120,33,3360,16,3600,24.5C3840,33,4080,65,4320,65.3C4560,65,4800,33,5040,73.5C5280,114,5520,229,5760,253.2C6000,278,6240,212,6480,196C6720,180,6960,212,7200,196C7440,180,7680,114,7920,114.3C8160,114,8400,180,8640,187.8C8880,196,9120,147,9360,122.5C9600,98,9840,98,10080,98C10320,98,10560,98,10800,81.7C11040,65,11280,33,11520,57.2C11760,82,12000,163,12240,163.3C12480,163,12720,82,12960,114.3C13200,147,13440,294,13680,367.5C13920,441,14160,441,14400,416.5C14640,392,14880,343,15120,294C15360,245,15600,196,15840,187.8C16080,180,16320,212,16560,212.3C16800,212,17040,180,17160,163.3L17280,147L17280,490L17160,490C17040,490,16800,490,16560,490C16320,490,16080,490,15840,490C15600,490,15360,490,15120,490C14880,490,14640,490,14400,490C14160,490,13920,490,13680,490C13440,490,13200,490,12960,490C12720,490,12480,490,12240,490C12000,490,11760,490,11520,490C11280,490,11040,490,10800,490C10560,490,10320,490,10080,490C9840,490,9600,490,9360,490C9120,490,8880,490,8640,490C8400,490,8160,490,7920,490C7680,490,7440,490,7200,490C6960,490,6720,490,6480,490C6240,490,6000,490,5760,490C5520,490,5280,490,5040,490C4800,490,4560,490,4320,490C4080,490,3840,490,3600,490C3360,490,3120,490,2880,490C2640,490,2400,490,2160,490C1920,490,1680,490,1440,490C1200,490,960,490,720,490C480,490,240,490,120,490L0,490Z"/><defs><linearGradient id="sw-gradient-3" x1="0" x2="0" y1="1" y2="0"><stop stop-color="rgba(243, 106, 62, 1)" offset="0%"/><stop stop-color="rgba(255, 179, 11, 1)" offset="100%"/></linearGradient></defs><path style="transform:translate(0, 150px); opacity:0.7" fill="url(#sw-gradient-3)" d="M0,0L120,8.2C240,16,480,33,720,106.2C960,180,1200,310,1440,375.7C1680,441,1920,441,2160,392C2400,343,2640,245,2880,212.3C3120,180,3360,212,3600,236.8C3840,261,4080,278,4320,269.5C4560,261,4800,229,5040,204.2C5280,180,5520,163,5760,155.2C6000,147,6240,147,6480,122.5C6720,98,6960,49,7200,81.7C7440,114,7680,229,7920,245C8160,261,8400,180,8640,163.3C8880,147,9120,196,9360,236.8C9600,278,9840,310,10080,269.5C10320,229,10560,114,10800,73.5C11040,33,11280,65,11520,89.8C11760,114,12000,131,12240,171.5C12480,212,12720,278,12960,294C13200,310,13440,278,13680,294C13920,310,14160,376,14400,367.5C14640,359,14880,278,15120,228.7C15360,180,15600,163,15840,130.7C16080,98,16320,49,16560,57.2C16800,65,17040,131,17160,163.3L17280,196L17280,490L17160,490C17040,490,16800,490,16560,490C16320,490,16080,490,15840,490C15600,490,15360,490,15120,490C14880,490,14640,490,14400,490C14160,490,13920,490,13680,490C13440,490,13200,490,12960,490C12720,490,12480,490,12240,490C12000,490,11760,490,11520,490C11280,490,11040,490,10800,490C10560,490,10320,490,10080,490C9840,490,9600,490,9360,490C9120,490,8880,490,8640,490C8400,490,8160,490,7920,490C7680,490,7440,490,7200,490C6960,490,6720,490,6480,490C6240,490,6000,490,5760,490C5520,490,5280,490,5040,490C4800,490,4560,490,4320,490C4080,490,3840,490,3600,490C3360,490,3120,490,2880,490C2640,490,2400,490,2160,490C1920,490,1680,490,1440,490C1200,490,960,490,720,490C480,490,240,490,120,490L0,490Z"/></svg>